<?xml version="1.0" standalone="no"?>
<!DOCTYPE svg PUBLIC "-//W3C//DTD SVG 20010904//EN"
 "http://www.w3.org/TR/2001/REC-SVG-20010904/DTD/svg10.dtd">
<svg version="1.0" xmlns="http://www.w3.org/2000/svg"
 width="1207.000000pt" height="394.000000pt" viewBox="0 0 1207.000000 394.000000"
 preserveAspectRatio="xMidYMid meet">
<metadata>
Created by potrace 1.15, written by Peter Selinger 2001-2017
</metadata>
<g transform="translate(0.000000,394.000000) scale(0.100000,-0.100000)"
fill="#000000" stroke="none">
<path d="M2299 3339 c-247 -170 -431 -379 -559 -634 -233 -467 -239 -993 -18
-1465 154 -330 450 -630 773 -785 135 -65 313 -122 451 -144 140 -23 264 -33
264 -22 0 4 -46 11 -102 14 -494 28 -972 305 -1253 727 -338 506 -375 1135
-99 1680 132 260 352 496 620 667 11 6 14 12 8 12 -6 1 -44 -22 -85 -50z"/>
<path d="M7610 3270 c0 -29 2 -30 45 -30 l45 0 0 -435 0 -435 -45 0 c-43 0
-45 -1 -45 -30 l0 -30 140 0 140 0 0 30 c0 27 -3 30 -30 30 l-30 0 0 135 c0
102 3 135 13 135 7 0 75 -74 152 -165 l139 -165 88 0 88 0 0 30 c0 26 -3 30
-29 30 -25 0 -48 22 -171 166 l-141 165 107 115 c88 94 111 114 135 114 26 0
29 4 29 30 l0 30 -120 0 -120 0 0 -30 c0 -29 2 -30 46 -30 l45 0 -118 -130
c-65 -71 -124 -130 -130 -130 -10 0 -13 69 -13 315 l0 315 -110 0 -110 0 0
-30z"/>
<path d="M5100 3211 c0 -30 1 -31 45 -31 l45 0 0 -410 0 -410 -45 0 c-42 0
-45 -2 -45 -26 l0 -25 268 3 c297 4 311 7 410 75 69 47 127 129 155 218 31 99
31 284 0 368 -43 115 -119 190 -242 239 -52 20 -76 22 -323 26 l-268 4 0 -31z
m417 -41 c175 -29 270 -127 294 -308 26 -195 -47 -389 -171 -452 -47 -24 -142
-40 -237 -40 l-73 0 0 405 0 405 63 0 c34 0 90 -5 124 -10z"/>
<path d="M2115 2944 c-180 -207 -284 -415 -347 -696 -30 -137 -33 -424 -5
-563 64 -314 190 -549 416 -776 221 -221 446 -343 758 -411 78 -17 134 -22
273 -22 164 -1 340 16 340 33 0 4 -33 2 -72 -5 -643 -111 -1290 218 -1574 801
-109 225 -147 390 -148 645 0 201 15 305 69 466 69 206 181 396 324 547 30 31
52 60 49 63 -4 3 -41 -34 -83 -82z"/>
<path d="M7115 2984 c-84 -31 -145 -124 -130 -197 18 -82 82 -139 213 -189
129 -48 173 -103 139 -173 -32 -67 -143 -82 -232 -32 -34 19 -40 28 -43 60 -3
36 -4 37 -43 37 l-40 0 3 -77 3 -78 70 -18 c96 -25 243 -20 301 11 49 25 102
82 110 120 3 15 8 33 10 40 2 7 -1 34 -7 58 -16 61 -67 102 -190 155 -123 51
-160 76 -172 113 -14 41 13 93 58 112 48 20 72 18 133 -11 50 -23 52 -26 52
-65 l0 -40 40 0 41 0 -3 77 -3 78 -60 17 c-74 20 -197 21 -250 2z"/>
<path d="M8596 2975 c-32 -13 -74 -39 -93 -57 -132 -127 -128 -420 6 -541 53
-48 136 -77 220 -77 100 0 166 25 227 85 72 70 97 139 97 265 0 126 -25 195
-97 265 -62 61 -127 85 -230 85 -52 0 -87 -7 -130 -25z m200 -55 c42 -21 78
-65 105 -130 9 -23 14 -71 14 -145 -1 -95 -4 -117 -24 -158 -63 -128 -172
-162 -260 -81 -63 56 -85 120 -86 244 0 116 19 176 73 234 54 57 110 68 178
36z"/>
<path d="M6070 2960 c0 -29 2 -30 45 -30 l44 0 3 -247 c3 -278 8 -299 76 -351
32 -24 44 -27 116 -27 70 0 87 4 127 27 25 15 60 43 78 63 l31 36 0 -61 0 -60
110 0 110 0 0 30 c0 29 -2 30 -45 30 l-45 0 0 310 0 310 -110 0 -110 0 0 -30
c0 -29 2 -30 45 -30 l45 0 0 -219 0 -219 -37 -30 c-62 -48 -104 -66 -161 -66
-47 -1 -57 3 -78 27 l-24 28 0 270 0 269 -110 0 -110 0 0 -30z"/>
<path d="M3100 2959 c-36 -5 -106 -20 -155 -34 -340 -99 -599 -366 -693 -715
-22 -83 -25 -115 -25 -250 0 -135 3 -167 25 -250 79 -293 262 -517 533 -651
148 -73 267 -101 435 -101 149 -1 223 12 362 62 110 40 304 159 282 173 -5 3
-47 -21 -94 -52 -166 -111 -330 -160 -536 -161 -181 0 -294 25 -448 101 -482
238 -683 840 -440 1321 101 201 289 377 493 463 142 60 198 70 391 70 153 0
185 -3 254 -23 100 -29 211 -80 288 -132 73 -50 102 -48 33 3 -77 56 -152 93
-266 131 -151 50 -290 64 -439 45z"/>
<path d="M3069 2357 c-118 -40 -208 -121 -259 -230 -121 -259 18 -550 297
-622 246 -64 497 102 544 360 40 218 -107 443 -326 501 -77 21 -179 17 -256
-9z m230 -18 c120 -27 228 -114 284 -228 30 -62 32 -72 32 -176 0 -100 -2
-115 -28 -167 -127 -258 -445 -322 -656 -132 -108 97 -157 269 -116 409 60
210 277 342 484 294z"/>
<path d="M3097 2255 c-48 -18 -118 -68 -144 -104 -55 -73 -67 -112 -68 -211 0
-90 2 -99 35 -159 65 -121 167 -176 313 -169 133 5 225 66 284 186 24 49 28
69 28 142 -1 65 -6 96 -22 132 -31 68 -99 137 -168 169 -51 25 -72 29 -140 28
-44 0 -97 -7 -118 -14z m248 -40 c106 -51 175 -161 175 -276 0 -80 -25 -142
-81 -203 -66 -72 -130 -100 -229 -100 -89 0 -147 24 -211 87 -74 74 -105 170
-87 269 13 68 31 103 82 156 96 102 229 127 351 67z"/>
<path d="M7520 1740 c0 -29 2 -30 45 -30 l45 0 0 -435 0 -435 -45 0 c-43 0
-45 -1 -45 -30 l0 -30 140 0 140 0 0 30 c0 27 -3 30 -30 30 l-30 0 0 135 c0
102 3 135 13 135 7 0 75 -74 152 -165 l139 -165 88 0 88 0 0 30 c0 26 -3 30
-29 30 -25 0 -48 22 -171 166 l-141 165 107 115 c88 94 111 114 135 114 26 0
29 4 29 30 l0 30 -120 0 -120 0 0 -30 c0 -29 2 -30 46 -30 l45 0 -118 -130
c-65 -71 -124 -130 -130 -130 -10 0 -13 69 -13 315 l0 315 -110 0 -110 0 0
-30z"/>
<path d="M5100 1680 c0 -29 2 -30 45 -30 l45 0 0 -405 0 -405 -45 0 c-43 0
-45 -1 -45 -30 l0 -30 140 0 140 0 0 30 c0 29 -1 30 -50 30 l-50 0 1 353 c0
193 3 348 5 342 2 -5 62 -161 132 -345 l128 -335 34 0 35 0 127 324 c70 178
130 326 133 329 3 3 5 -146 5 -331 l0 -337 -45 0 c-43 0 -45 -1 -45 -30 l0
-30 155 0 155 0 0 30 c0 29 -2 30 -45 30 l-45 0 0 405 0 405 45 0 c43 0 45 1
45 30 l0 30 -114 0 -113 0 -128 -327 c-70 -181 -131 -331 -134 -335 -4 -4 -46
97 -95 225 -49 127 -107 278 -128 335 l-40 102 -124 0 -124 0 0 -30z"/>
<path d="M9960 1645 l0 -65 65 0 65 0 0 65 0 65 -65 0 -65 0 0 -65z"/>
<path d="M6419 1459 c-20 -4 -62 -19 -93 -33 l-56 -25 0 -65 0 -66 40 0 c39 0
40 1 40 35 0 41 37 80 90 95 47 13 65 13 105 -4 47 -20 65 -60 65 -146 l0 -70
-62 0 c-68 0 -173 -22 -217 -44 -144 -75 -142 -281 4 -347 80 -37 178 -18 265
51 43 34 50 36 50 14 0 -9 15 -31 34 -50 27 -27 42 -34 72 -34 72 0 85 8 82
49 -3 31 -7 36 -29 39 -15 2 -35 12 -45 24 -17 18 -20 45 -24 242 -4 128 -11
232 -17 247 -16 36 -66 76 -111 89 -43 12 -142 12 -193 -1z m191 -444 l0 -106
-52 -24 c-61 -29 -85 -31 -133 -11 -84 35 -86 169 -4 211 35 19 97 32 152 34
l37 1 0 -105z"/>
<path d="M7275 1451 c-23 -10 -60 -40 -83 -66 l-42 -48 0 62 0 61 -110 0 -110
0 0 -30 c0 -29 2 -30 45 -30 l45 0 0 -280 0 -280 -45 0 c-43 0 -45 -1 -45 -30
l0 -30 155 0 155 0 0 30 c0 29 -2 30 -45 30 l-45 0 0 213 0 213 28 27 c29 28
106 66 135 67 13 0 17 -8 17 -35 0 -34 1 -35 40 -35 l40 0 0 90 0 90 -47 0
c-27 0 -66 -9 -88 -19z"/>
<path d="M8506 1445 c-32 -13 -74 -39 -93 -57 -132 -127 -128 -420 6 -541 53
-48 136 -77 220 -77 100 0 166 25 227 85 72 70 97 139 97 265 0 126 -25 195
-97 265 -62 61 -127 85 -230 85 -52 0 -87 -7 -130 -25z m200 -55 c42 -21 78
-65 105 -130 9 -23 14 -71 14 -145 -1 -95 -4 -117 -24 -158 -63 -128 -172
-162 -260 -81 -63 56 -85 120 -86 244 0 116 19 176 73 234 54 57 110 68 178
36z"/>
<path d="M10521 1448 c-138 -53 -218 -216 -190 -388 20 -125 77 -208 177 -257
51 -25 67 -28 157 -28 61 1 116 7 140 15 38 14 40 17 43 62 l3 47 -43 -16
c-24 -9 -76 -16 -118 -17 -64 -1 -81 3 -121 26 -154 91 -141 414 21 496 54 27
82 27 137 3 38 -18 42 -24 48 -65 7 -44 8 -46 42 -46 l34 0 -3 78 -3 77 -65
17 c-91 23 -192 22 -259 -4z"/>
<path d="M9070 1431 c0 -26 4 -30 31 -33 30 -3 32 -7 158 -308 l127 -305 35
-3 34 -2 139 310 c135 302 139 310 167 310 26 0 29 4 29 30 l0 30 -110 0 -110
0 0 -29 c0 -28 3 -30 44 -33 l45 -3 -98 -218 c-54 -120 -100 -220 -103 -222
-3 -3 -146 329 -184 429 -5 13 2 16 40 16 44 0 46 1 46 30 l0 30 -145 0 -145
0 0 -29z"/>
<path d="M9870 1430 c0 -29 2 -30 45 -30 l45 0 0 -280 0 -280 -45 0 c-43 0
-45 -1 -45 -30 l0 -30 155 0 155 0 0 30 c0 29 -2 30 -45 30 l-45 0 0 310 0
310 -110 0 -110 0 0 -30z"/>
</g>
</svg>
