<svg xmlns="http://www.w3.org/2000/svg" xmlns:xlink="http://www.w3.org/1999/xlink" viewBox="0 0 1207 394"><defs><linearGradient id="teal_gradient" x1="237.96" y1="51.52" x2="254.46" y2="51.52" gradientUnits="userSpaceOnUse"><stop offset="0" stop-color="#fff"/><stop offset="0" stop-color="#80cbc4"/><stop offset="1" stop-color="#009688"/></linearGradient><linearGradient id="teal_gradient-2" x1="239.08" y1="51.68" x2="253.56" y2="51.68" xlink:href="#teal_gradient"/><linearGradient id="teal_gradient-3" x1="245.49" y1="198.61" x2="322.85" y2="198.61" xlink:href="#teal_gradient"/><linearGradient id="teal_gradient-4" x1="210.95" y1="92.28" x2="232.29" y2="92.28" xlink:href="#teal_gradient"/><linearGradient id="teal_gradient-5" x1="212.27" y1="92.15" x2="231.58" y2="92.15" xlink:href="#teal_gradient"/><linearGradient id="teal_gradient-6" x1="304.56" y1="200.35" x2="338.82" y2="200.35" xlink:href="#teal_gradient"/></defs><title>logooo</title><g id="Layer_9" data-name="Layer 9"><path d="M321.11,365A166.35,166.35,0,0,1,322.56,32.3" style="fill:none;stroke:#000;stroke-miterlimit:10"/><polyline points="239.22 54.88 239.07 54.96 245.51 40.12 253.56 63.23 239.4 55.43 239.55 55.4" style="fill:none;stroke-miterlimit:10;stroke:url(#teal_gradient)"/><polyline points="239.22 54.88 239.07 54.96 245.51 40.12 253.56 63.23 239.4 55.43 239.55 55.4" style="fill-rule:evenodd;fill:url(#teal_gradient-2)"/><path d="M355.08,53.82a148.08,148.08,0,1,0,0,289" style="fill:none;stroke:#000;stroke-miterlimit:10"/><path d="M386,274.82a99.58,99.58,0,1,1-1.79-155.12" style="fill:none;stroke:#000;stroke-miterlimit:10;stroke-width:2px"/><path d="M322.85,275a76.36,76.36,0,0,1,0-152.72" style="fill:none;stroke-miterlimit:10;stroke-width:2px;opacity:0.65;stroke:url(#teal_gradient-3)"/><polyline points="228.48 83.95 228.6 83.84 212.27 84.95 231.59 100.46 228.94 84.31 228.86 84.45" style="fill:none;stroke-miterlimit:10;stroke:url(#teal_gradient-4)"/><polyline points="228.48 83.95 228.6 83.84 212.27 84.95 231.59 100.46 228.94 84.31 228.86 84.45" style="fill-rule:evenodd;fill:url(#teal_gradient-5)"/><path d="M321.11,158.93a41.43,41.43,0,1,1-41.43,41.42,41.47,41.47,0,0,1,41.43-41.42m0-3a44.43,44.43,0,1,0,44.42,44.42,44.43,44.43,0,0,0-44.42-44.42Z"/><g style="opacity:0.65"><path d="M321.4,169.38a30.68,30.68,0,1,1-30.68,30.68,30.72,30.72,0,0,1,30.68-30.68m0-3a33.68,33.68,0,1,0,33.68,33.68,33.68,33.68,0,0,0-33.68-33.68Z"/></g><circle cx="321.69" cy="200.35" r="17.13" style="fill:url(#teal_gradient-6)"/><path d="M510,162.52v-6.2h9.27V76H510V69.81h38.84q22.49,0,34.74,11.65t12.24,33q0,22.23-12,35.14t-32.64,12.9Zm22.43-7h9.14q12.46,0,19-2.23a26.5,26.5,0,0,0,11.71-8.23q9.52-11.16,9.52-30Q581.85,76,541.57,76h-9.14Z"/><path d="M659.84,162.52V149.74A33.45,33.45,0,0,1,649,160.49a26.55,26.55,0,0,1-13.7,3.6q-8.69,0-13.7-5.77t-5-15.91V100.69h-9.27v-6.2H629v46q0,8,2.37,11.18t8.24,3.17a21.11,21.11,0,0,0,10.11-2.73,40.57,40.57,0,0,0,10.1-8.11V100.69h-9.27v-6.2h21.68v61.83h9.27v6.2Z"/><path d="M697.87,159.08V144h7.7v7.74a37.48,37.48,0,0,0,8.14,4.66,20.81,20.81,0,0,0,7.65,1.57,14.74,14.74,0,0,0,9.68-3.08,9.85,9.85,0,0,0,3.72-8q0-7.41-10.83-11.61l-6.33-2.45q-19.36-7.53-19.36-20.83a16.92,16.92,0,0,1,6.61-13.69q6.61-5.38,16.76-5.39a56.89,56.89,0,0,1,10.24.95,62.59,62.59,0,0,1,10.43,2.93v14.72h-7.71v-7.81a30.11,30.11,0,0,0-6.73-3.49,19.21,19.21,0,0,0-6.48-1.16,11.75,11.75,0,0,0-8.21,3,9.59,9.59,0,0,0-3.32,7.39,8.52,8.52,0,0,0,3,6.68q3,2.67,11.59,6.18l5.76,2.38q9.46,3.89,13.19,8.06a15.54,15.54,0,0,1,3.72,10.75,18.07,18.07,0,0,1-7.23,14.83q-7.25,5.75-18.89,5.74a55.68,55.68,0,0,1-11.87-1.26A54,54,0,0,1,697.87,159.08Z"/><path d="M783.25,129.07v27.25h6.2v6.2H761.57v-6.2h9.27V69.81h-9.27v-6.2h21.68V126h2.91l23.71-25.31h-9.33v-6.2h24v6.2h-6.2l-21,22.42,27.95,33.21h6.2v6.2H814.32l-28.16-33.45Z"/><path d="M873.39,164.09q-15,0-23.74-9.53t-8.71-26.08q0-16.5,8.71-26t23.74-9.53q15.09,0,23.77,9.53t8.68,26q0,16.49-8.68,26.05T873.39,164.09Zm0-6.14q8.37,0,13.85-8.32t5.47-21.12q0-12.81-5.47-21.13t-13.85-8.31q-8.39,0-13.82,8.31t-5.44,21.13q0,12.8,5.44,21.12T873.36,158Z"/><path d="M519.27,310.33V229.9H510v-6.14h24.56l26.12,68.08,26.94-68.08h22v6.14H600.4v80.43h9.27v6.14H578.78v-6.14h9.28l-.13-68.83L561,309.58h-6.13l-27.07-70.89v71.64h10v6.14H510v-6.14Z"/><path d="M664.31,307.14a43.93,43.93,0,0,1-11,8.17A23.93,23.93,0,0,1,642.53,318a20,20,0,0,1-14.39-5.49,18.23,18.23,0,0,1-5.76-13.77q0-11.29,9.13-16.91t27.4-5.62h2.56v-8.39q0-14.85-12.62-14.85a19.93,19.93,0,0,0-13.63,5.58l-.75,6.83h-7V252.58q13.1-5.7,24.18-5.7,22.17,0,22.17,20.37V297.6q0,12.67,6.27,12.67a13.59,13.59,0,0,0,3-.44l.81,6.64a25,25,0,0,1-8,1.57Q666.76,318,664.31,307.14Zm-2.84-3.39V282.46h-2.94q-11.49,0-17.24,3.66t-5.75,11.06A12.1,12.1,0,0,0,639,306a11.67,11.67,0,0,0,8.69,3.51,16.56,16.56,0,0,0,6.37-1.44A38,38,0,0,0,661.47,303.75Z"/><path d="M714.91,267v43.29h9.27v6.2H693.23v-6.2h9.27V254.64h-9.27v-6.2h21.68v12.78q8.33-14.34,22.17-14.34a11.14,11.14,0,0,1,4.07.78v17h-7.7v-7h-2Q723.49,257.71,714.91,267Z"/><path d="M773.66,283v27.25h6.2v6.2H752v-6.2h9.27V223.76H752v-6.2h21.67V280h2.92l23.71-25.31H791v-6.2h24v6.2h-6.2l-21,22.42,28,33.21h6.21v6.2H804.73L776.58,283Z"/><path d="M863.8,318q-15,0-23.74-9.53t-8.7-26.09q0-16.49,8.7-26t23.74-9.53q15.11,0,23.78,9.53t8.67,26q0,16.5-8.67,26.05T863.8,318Zm0-6.14q8.38,0,13.86-8.32t5.47-21.12q0-12.81-5.47-21.13T863.77,253q-8.37,0-13.82,8.32t-5.44,21.13q0,12.8,5.44,21.12T863.77,311.9Z"/><path d="M939.16,317.22l-26-62.58h-5.46v-6.2h28.12v6.2h-9.33L945.8,301l20.67-46.36H957.2v-6.2h21.49v6.2h-5.43l-27.91,62.58Z"/><path d="M1009.2,248.44v61.83h9.27v6.2h-31v-6.2h9.27V254.64h-9.27v-6.2ZM996.79,236.1V223.76h12.41V236.1Z"/><path d="M1084.87,314.15A50.88,50.88,0,0,1,1066.2,318q-15.29,0-24.59-9.88t-9.3-26.05q0-15.86,8.87-25.55t23.39-9.68a62.43,62.43,0,0,1,9,.75c3.39.5,7.14,1.27,11.28,2.31v15.48h-7l-.75-8.52a20.7,20.7,0,0,0-5.6-2.92,19.07,19.07,0,0,0-6-1q-8.64,0-14.37,8.34t-5.73,20.89q0,12.72,5.92,20t16.19,7.28a40.51,40.51,0,0,0,17.29-3.95Z"/></g></svg>